<svg width="193" height="59" viewBox="0 0 193 59" fill="none" xmlns="http://www.w3.org/2000/svg">
<rect width="193" height="59" rx="8" fill="url(#paint0_linear_31_32)"/>
<path fill-rule="evenodd" clip-rule="evenodd" d="M38.2209 20.3883C39.1984 20.3433 39.51 20.3333 42 20.3333C44.49 20.3333 44.8017 20.3441 45.7784 20.3883C46.755 20.4325 47.4217 20.5883 48.005 20.8141C48.6159 21.045 49.17 21.4058 49.6284 21.8725C50.095 22.33 50.455 22.8833 50.685 23.495C50.9117 24.0783 51.0667 24.745 51.1117 25.72C51.1567 26.6991 51.1667 27.0108 51.1667 29.5C51.1667 31.99 51.1559 32.3016 51.1117 33.2791C51.0675 34.2541 50.9117 34.9208 50.685 35.5041C50.455 36.1159 50.0944 36.6701 49.6284 37.1283C49.17 37.595 48.6159 37.955 48.005 38.185C47.4217 38.4116 46.755 38.5666 45.78 38.6116C44.8017 38.6566 44.49 38.6666 42 38.6666C39.51 38.6666 39.1984 38.6558 38.2209 38.6116C37.2459 38.5675 36.5792 38.4116 35.9959 38.185C35.3841 37.955 34.8299 37.5944 34.3717 37.1283C33.9054 36.6705 33.5445 36.1166 33.3142 35.505C33.0884 34.9216 32.9334 34.255 32.8884 33.28C32.8434 32.3008 32.8334 31.9891 32.8334 29.5C32.8334 27.01 32.8442 26.6983 32.8884 25.7216C32.9325 24.745 33.0884 24.0783 33.3142 23.495C33.5448 22.8834 33.906 22.3294 34.3725 21.8716C34.8301 21.4054 35.3838 21.0445 35.995 20.8141C36.5784 20.5883 37.245 20.4333 38.22 20.3883H38.2209ZM45.7042 22.0383C44.7375 21.9941 44.4475 21.985 42 21.985C39.5525 21.985 39.2625 21.9941 38.2959 22.0383C37.4017 22.0791 36.9167 22.2283 36.5934 22.3541C36.1659 22.5208 35.86 22.7183 35.5392 23.0391C35.2351 23.335 35.001 23.6952 34.8542 24.0933C34.7284 24.4166 34.5792 24.9016 34.5384 25.7958C34.4942 26.7625 34.485 27.0525 34.485 29.5C34.485 31.9475 34.4942 32.2375 34.5384 33.2041C34.5792 34.0983 34.7284 34.5833 34.8542 34.9066C35.0009 35.3041 35.235 35.665 35.5392 35.9608C35.835 36.265 36.1959 36.4991 36.5934 36.6458C36.9167 36.7716 37.4017 36.9208 38.2959 36.9616C39.2625 37.0058 39.5517 37.015 42 37.015C44.4484 37.015 44.7375 37.0058 45.7042 36.9616C46.5984 36.9208 47.0834 36.7716 47.4067 36.6458C47.8342 36.4791 48.14 36.2816 48.4609 35.9608C48.765 35.665 48.9992 35.3041 49.1459 34.9066C49.2717 34.5833 49.4209 34.0983 49.4617 33.2041C49.5059 32.2375 49.515 31.9475 49.515 29.5C49.515 27.0525 49.5059 26.7625 49.4617 25.7958C49.4209 24.9016 49.2717 24.4166 49.1459 24.0933C48.9792 23.6658 48.7817 23.36 48.4609 23.0391C48.165 22.735 47.8048 22.501 47.4067 22.3541C47.0834 22.2283 46.5984 22.0791 45.7042 22.0383ZM40.8292 32.3258C41.4831 32.598 42.2112 32.6347 42.8891 32.4297C43.5671 32.2248 44.1529 31.7907 44.5464 31.2018C44.9399 30.613 45.1168 29.9057 45.0467 29.2009C44.9767 28.4961 44.6642 27.8375 44.1625 27.3375C43.8427 27.0179 43.4561 26.7732 43.0303 26.6209C42.6046 26.4687 42.1504 26.4128 41.7005 26.4572C41.2505 26.5015 40.816 26.6451 40.4282 26.8776C40.0404 27.11 39.709 27.4256 39.4578 27.8015C39.2066 28.1774 39.0419 28.6044 38.9755 29.0516C38.9091 29.4988 38.9427 29.9552 39.0738 30.3879C39.205 30.8206 39.4304 31.2188 39.734 31.5539C40.0375 31.889 40.4116 32.1526 40.8292 32.3258ZM38.6684 26.1683C39.1059 25.7308 39.6253 25.3837 40.197 25.1469C40.7686 24.9102 41.3813 24.7883 42 24.7883C42.6188 24.7883 43.2315 24.9102 43.8031 25.1469C44.3748 25.3837 44.8942 25.7308 45.3317 26.1683C45.7692 26.6058 46.1163 27.1252 46.3531 27.6969C46.5899 28.2685 46.7117 28.8812 46.7117 29.5C46.7117 30.1187 46.5899 30.7314 46.3531 31.3031C46.1163 31.8747 45.7692 32.3941 45.3317 32.8316C44.4481 33.7153 43.2497 34.2117 42 34.2117C40.7504 34.2117 39.552 33.7153 38.6684 32.8316C37.7848 31.948 37.2884 30.7496 37.2884 29.5C37.2884 28.2504 37.7848 27.0519 38.6684 26.1683ZM47.7567 25.49C47.8651 25.3877 47.9519 25.2647 48.012 25.1283C48.072 24.9919 48.104 24.8448 48.1062 24.6958C48.1084 24.5467 48.0806 24.3988 48.0246 24.2607C47.9686 24.1225 47.8854 23.9971 47.78 23.8917C47.6746 23.7863 47.5491 23.7031 47.411 23.6471C47.2729 23.591 47.125 23.5633 46.9759 23.5655C46.8269 23.5676 46.6798 23.5997 46.5434 23.6597C46.407 23.7198 46.284 23.8066 46.1817 23.915C45.9828 24.1258 45.8739 24.4059 45.8781 24.6958C45.8824 24.9856 45.9994 25.2624 46.2043 25.4673C46.4093 25.6723 46.6861 25.7893 46.9759 25.7936C47.2658 25.7978 47.5459 25.6889 47.7567 25.49Z" fill="#F6F6F6"/>
<path d="M65.494 36V23.4H68.41V36H65.494ZM77.0883 26.172C77.8563 26.172 78.5403 26.328 79.1403 26.64C79.7523 26.94 80.2323 27.408 80.5803 28.044C80.9283 28.668 81.1023 29.472 81.1023 30.456V36H78.2943V30.888C78.2943 30.108 78.1203 29.532 77.7723 29.16C77.4363 28.788 76.9563 28.602 76.3323 28.602C75.8883 28.602 75.4863 28.698 75.1263 28.89C74.7783 29.07 74.5023 29.352 74.2983 29.736C74.1063 30.12 74.0103 30.612 74.0103 31.212V36H71.2023V26.316H73.8843V28.998L73.3803 28.188C73.7283 27.54 74.2263 27.042 74.8743 26.694C75.5223 26.346 76.2603 26.172 77.0883 26.172ZM86.9056 36.144C86.0776 36.144 85.2796 36.048 84.5116 35.856C83.7556 35.652 83.1556 35.4 82.7116 35.1L83.6476 33.084C84.0916 33.36 84.6136 33.588 85.2136 33.768C85.8256 33.936 86.4256 34.02 87.0136 34.02C87.6616 34.02 88.1176 33.942 88.3816 33.786C88.6576 33.63 88.7956 33.414 88.7956 33.138C88.7956 32.91 88.6876 32.742 88.4716 32.634C88.2676 32.514 87.9916 32.424 87.6436 32.364C87.2956 32.304 86.9116 32.244 86.4916 32.184C86.0836 32.124 85.6696 32.046 85.2496 31.95C84.8296 31.842 84.4456 31.686 84.0976 31.482C83.7496 31.278 83.4676 31.002 83.2516 30.654C83.0476 30.306 82.9456 29.856 82.9456 29.304C82.9456 28.692 83.1196 28.152 83.4676 27.684C83.8276 27.216 84.3436 26.85 85.0156 26.586C85.6876 26.31 86.4916 26.172 87.4276 26.172C88.0876 26.172 88.7596 26.244 89.4436 26.388C90.1276 26.532 90.6976 26.742 91.1536 27.018L90.2176 29.016C89.7496 28.74 89.2756 28.554 88.7956 28.458C88.3276 28.35 87.8716 28.296 87.4276 28.296C86.8036 28.296 86.3476 28.38 86.0596 28.548C85.7716 28.716 85.6276 28.932 85.6276 29.196C85.6276 29.436 85.7296 29.616 85.9336 29.736C86.1496 29.856 86.4316 29.952 86.7796 30.024C87.1276 30.096 87.5056 30.162 87.9136 30.222C88.3336 30.27 88.7536 30.348 89.1736 30.456C89.5936 30.564 89.9716 30.72 90.3076 30.924C90.6556 31.116 90.9376 31.386 91.1536 31.734C91.3696 32.07 91.4776 32.514 91.4776 33.066C91.4776 33.666 91.2976 34.2 90.9376 34.668C90.5776 35.124 90.0556 35.484 89.3716 35.748C88.6996 36.012 87.8776 36.144 86.9056 36.144ZM97.1701 36.144C96.0301 36.144 95.1421 35.856 94.5061 35.28C93.8701 34.692 93.5521 33.822 93.5521 32.67V24.174H96.3601V32.634C96.3601 33.042 96.4681 33.36 96.6841 33.588C96.9001 33.804 97.1941 33.912 97.5661 33.912C98.0101 33.912 98.3881 33.792 98.7001 33.552L99.4561 35.532C99.1681 35.736 98.8201 35.892 98.4121 36C98.0161 36.096 97.6021 36.144 97.1701 36.144ZM92.0581 28.692V26.532H98.7721V28.692H92.0581ZM106.972 36V34.11L106.792 33.696V30.312C106.792 29.712 106.606 29.244 106.234 28.908C105.874 28.572 105.316 28.404 104.56 28.404C104.044 28.404 103.534 28.488 103.03 28.656C102.538 28.812 102.118 29.028 101.77 29.304L100.762 27.342C101.29 26.97 101.926 26.682 102.67 26.478C103.414 26.274 104.17 26.172 104.938 26.172C106.414 26.172 107.56 26.52 108.376 27.216C109.192 27.912 109.6 28.998 109.6 30.474V36H106.972ZM104.02 36.144C103.264 36.144 102.616 36.018 102.076 35.766C101.536 35.502 101.122 35.148 100.834 34.704C100.546 34.26 100.402 33.762 100.402 33.21C100.402 32.634 100.54 32.13 100.816 31.698C101.104 31.266 101.554 30.93 102.166 30.69C102.778 30.438 103.576 30.312 104.56 30.312H107.134V31.95H104.866C104.206 31.95 103.75 32.058 103.498 32.274C103.258 32.49 103.138 32.76 103.138 33.084C103.138 33.444 103.276 33.732 103.552 33.948C103.84 34.152 104.23 34.254 104.722 34.254C105.19 34.254 105.61 34.146 105.982 33.93C106.354 33.702 106.624 33.372 106.792 32.94L107.224 34.236C107.02 34.86 106.648 35.334 106.108 35.658C105.568 35.982 104.872 36.144 104.02 36.144ZM116.766 39.636C115.854 39.636 114.972 39.522 114.12 39.294C113.28 39.078 112.578 38.748 112.014 38.304L113.13 36.288C113.538 36.624 114.054 36.888 114.678 37.08C115.314 37.284 115.938 37.386 116.55 37.386C117.546 37.386 118.266 37.164 118.71 36.72C119.166 36.276 119.394 35.616 119.394 34.74V33.282L119.574 30.852L119.538 28.404V26.316H122.202V34.38C122.202 36.18 121.734 37.506 120.798 38.358C119.862 39.21 118.518 39.636 116.766 39.636ZM116.334 35.532C115.434 35.532 114.618 35.34 113.886 34.956C113.166 34.56 112.584 34.014 112.14 33.318C111.708 32.61 111.492 31.788 111.492 30.852C111.492 29.904 111.708 29.082 112.14 28.386C112.584 27.678 113.166 27.132 113.886 26.748C114.618 26.364 115.434 26.172 116.334 26.172C117.15 26.172 117.87 26.34 118.494 26.676C119.118 27 119.604 27.51 119.952 28.206C120.3 28.89 120.474 29.772 120.474 30.852C120.474 31.92 120.3 32.802 119.952 33.498C119.604 34.182 119.118 34.692 118.494 35.028C117.87 35.364 117.15 35.532 116.334 35.532ZM116.892 33.228C117.384 33.228 117.822 33.132 118.206 32.94C118.59 32.736 118.89 32.454 119.106 32.094C119.322 31.734 119.43 31.32 119.43 30.852C119.43 30.372 119.322 29.958 119.106 29.61C118.89 29.25 118.59 28.974 118.206 28.782C117.822 28.578 117.384 28.476 116.892 28.476C116.4 28.476 115.962 28.578 115.578 28.782C115.194 28.974 114.888 29.25 114.66 29.61C114.444 29.958 114.336 30.372 114.336 30.852C114.336 31.32 114.444 31.734 114.66 32.094C114.888 32.454 115.194 32.736 115.578 32.94C115.962 33.132 116.4 33.228 116.892 33.228ZM124.816 36V26.316H127.498V29.052L127.12 28.26C127.408 27.576 127.87 27.06 128.506 26.712C129.142 26.352 129.916 26.172 130.828 26.172V28.764C130.708 28.752 130.6 28.746 130.504 28.746C130.408 28.734 130.306 28.728 130.198 28.728C129.43 28.728 128.806 28.95 128.326 29.394C127.858 29.826 127.624 30.504 127.624 31.428V36H124.816ZM137.804 36V34.11L137.624 33.696V30.312C137.624 29.712 137.438 29.244 137.066 28.908C136.706 28.572 136.148 28.404 135.392 28.404C134.876 28.404 134.366 28.488 133.862 28.656C133.37 28.812 132.95 29.028 132.602 29.304L131.594 27.342C132.122 26.97 132.758 26.682 133.502 26.478C134.246 26.274 135.002 26.172 135.77 26.172C137.246 26.172 138.392 26.52 139.208 27.216C140.024 27.912 140.432 28.998 140.432 30.474V36H137.804ZM134.852 36.144C134.096 36.144 133.448 36.018 132.908 35.766C132.368 35.502 131.954 35.148 131.666 34.704C131.378 34.26 131.234 33.762 131.234 33.21C131.234 32.634 131.372 32.13 131.648 31.698C131.936 31.266 132.386 30.93 132.998 30.69C133.61 30.438 134.408 30.312 135.392 30.312H137.966V31.95H135.698C135.038 31.95 134.582 32.058 134.33 32.274C134.09 32.49 133.97 32.76 133.97 33.084C133.97 33.444 134.108 33.732 134.384 33.948C134.672 34.152 135.062 34.254 135.554 34.254C136.022 34.254 136.442 34.146 136.814 33.93C137.186 33.702 137.456 33.372 137.624 32.94L138.056 34.236C137.852 34.86 137.48 35.334 136.94 35.658C136.4 35.982 135.704 36.144 134.852 36.144ZM155.376 26.172C156.144 26.172 156.822 26.328 157.41 26.64C158.01 26.94 158.478 27.408 158.814 28.044C159.162 28.668 159.336 29.472 159.336 30.456V36H156.528V30.888C156.528 30.108 156.366 29.532 156.042 29.16C155.718 28.788 155.262 28.602 154.674 28.602C154.266 28.602 153.9 28.698 153.576 28.89C153.252 29.07 153 29.346 152.82 29.718C152.64 30.09 152.55 30.564 152.55 31.14V36H149.742V30.888C149.742 30.108 149.58 29.532 149.256 29.16C148.944 28.788 148.494 28.602 147.906 28.602C147.498 28.602 147.132 28.698 146.808 28.89C146.484 29.07 146.232 29.346 146.052 29.718C145.872 30.09 145.782 30.564 145.782 31.14V36H142.974V26.316H145.656V28.962L145.152 28.188C145.488 27.528 145.962 27.03 146.574 26.694C147.198 26.346 147.906 26.172 148.698 26.172C149.586 26.172 150.36 26.4 151.02 26.856C151.692 27.3 152.136 27.984 152.352 28.908L151.362 28.638C151.686 27.882 152.202 27.282 152.91 26.838C153.63 26.394 154.452 26.172 155.376 26.172Z" fill="#F6F6F6"/>
<defs>
<linearGradient id="paint0_linear_31_32" x1="96.5" y1="0" x2="96.5" y2="59" gradientUnits="userSpaceOnUse">
<stop stop-color="#A748D9"/>
<stop offset="1" stop-color="#ED3277"/>
</linearGradient>
</defs>
</svg>
